<svg width="1605" height="1502" viewBox="0 0 1605 1502" fill="none" xmlns="http://www.w3.org/2000/svg">
<path d="M420 1.4402C373.065 7.6054 329.45 15.8118 286.667 37.2035C253.255 53.9093 222.429 73.1985 194.286 97.8681C90.528 188.821 34.5169 323.546 16.3767 458.208C6.39003 532.342 7.14213 607.573 5.31394 682.208C3.82476 743.001 2.66678 804.031 2.66678 864.874V1051.54C2.66678 1158.28 1.33347 1264.81 1.33347 1371.54C1.33347 1414.34 -6.08501 1466.68 41.3335 1486.97C62.0912 1495.85 85.9061 1492.87 108 1492.87H226.667C248.669 1492.87 271.344 1493.18 285.209 1472.87C301.068 1449.65 297.333 1420.92 297.333 1394.21V1236.87C297.333 1095.51 296 954.282 296 812.874V667.541C296 642.64 298.474 616.23 295.233 591.541C292.169 568.21 294.667 543.072 294.667 519.541C294.667 451.836 294.272 369.765 362.667 331.958C374.809 325.245 387.839 320.016 401.333 316.739C415.985 313.18 433.009 312.983 448 314.434C499.45 319.414 540.487 357.768 565.133 400.874C610.437 480.11 626.554 579.254 645.613 667.541C660.585 736.891 675.262 806.385 691.132 875.541C733.46 1059.99 752.94 1273.33 906.667 1404.3C935.198 1428.61 965.185 1448.47 998.667 1465.2C1034 1482.87 1074.22 1493.73 1113.33 1498.41C1154.44 1503.33 1195.12 1503.68 1236 1496.31C1276.45 1489.01 1317.11 1477.26 1353.33 1457.42C1386.41 1439.31 1417.9 1419.05 1445.33 1392.82C1532.56 1309.42 1582.62 1183.09 1596.95 1064.87C1606.1 989.413 1604 913.963 1604 838.208C1604 766.08 1605.04 692.779 1600.12 620.874C1596.32 565.44 1598.67 508.454 1598.67 452.874C1598.67 348.036 1596 243.086 1596 138.208C1596 98.6916 1606.12 47.9514 1561.33 28.7128C1539.5 19.3364 1511.2 23.5409 1488 23.5409C1440.86 23.5409 1393.65 21.3071 1346.67 23.5945C1329.84 24.414 1313.48 35.9347 1305.17 50.2076C1293.53 70.1892 1298.67 99.9047 1298.67 122.208C1298.67 177.398 1300 232.381 1300 287.541C1300 494.669 1304 701.814 1304 908.874C1304 950.282 1305.33 991.471 1305.33 1032.87C1305.33 1059.8 1306.7 1086.83 1298.63 1112.87C1282.69 1164.34 1234.12 1203.3 1178.67 1196.49C1126.57 1190.09 1088.92 1151.26 1066.34 1106.21C1026.83 1027.38 1015.47 935.463 996.768 850.208C974.249 747.538 951.934 644.832 929.352 542.208C903.953 426.778 875.298 309.221 809.993 208.874C739.345 100.316 631.861 20.2955 501.333 4.66741C474.936 1.50676 446.57 -2.05004 420 1.4402Z" fill="#435DF8"/>
</svg>
